<svg width="30" height="30" viewBox="0 0 30 30" fill="none" xmlns="http://www.w3.org/2000/svg">
<circle cx="15" cy="15" r="15" fill="#F7F7F7"/>
<path d="M21.9644 10.0062C21.4001 10.4203 20.7753 10.737 20.114 10.9441C19.7591 10.5196 19.2875 10.2187 18.7628 10.0821C18.2382 9.94557 17.6859 9.97992 17.1806 10.1805C16.6754 10.3812 16.2416 10.7384 15.9378 11.2038C15.6341 11.6693 15.4751 12.2206 15.4823 12.7832V13.3962C14.4467 13.4242 13.4206 13.1852 12.4953 12.7007C11.5699 12.2162 10.7742 11.5011 10.1788 10.6192C10.1788 10.6192 7.82169 16.1365 13.1252 18.5886C11.9116 19.4456 10.4659 19.8753 9.00024 19.8146C14.3037 22.8798 20.7858 19.8146 20.7858 12.7648C20.7853 12.594 20.7695 12.4237 20.7387 12.256C21.3401 11.639 21.7645 10.8599 21.9644 10.0062Z" fill="#3D3D3D"/>
</svg>
