<svg width="30" height="30" viewBox="0 0 30 30" fill="none" xmlns="http://www.w3.org/2000/svg">
<circle cx="15" cy="15" r="15" fill="#F7F7F7"/>
<path d="M21.669 12.4088C21.5937 12.1325 21.4401 11.8794 21.224 11.6749C21.0078 11.4705 20.7367 11.322 20.438 11.2445C19.3465 11 14.9807 11 14.9807 11C14.9807 11 10.6148 11 9.52333 11.2678C9.22461 11.3453 8.95348 11.4938 8.73732 11.6982C8.52117 11.9027 8.36765 12.1558 8.29227 12.4321C8.09251 13.4483 7.9948 14.4791 8.00036 15.5116C7.99324 16.552 8.09096 17.5907 8.29227 18.6145C8.37537 18.8822 8.53233 19.1257 8.74798 19.3215C8.96363 19.5173 9.23068 19.6588 9.52333 19.7322C10.6148 20 14.9807 20 14.9807 20C14.9807 20 19.3465 20 20.438 19.7322C20.7367 19.6547 21.0078 19.5062 21.224 19.3018C21.4401 19.0973 21.5937 18.8442 21.669 18.5679C21.8673 17.5594 21.965 16.5364 21.9609 15.5116C21.9681 14.4713 21.8703 13.4326 21.669 12.4088Z" fill="#3D3D3D"/>
<path d="M14 17.5L16.9917 15.5L14 13.5V17.5Z" fill="#F7F7F7"/>
</svg>
