<svg width="850" height="377" viewBox="0 0 850 377" fill="none" xmlns="http://www.w3.org/2000/svg">
<path d="M701.115 126.615L653.528 79.0282C652.511 78.0107 651.421 77.0678 650.269 76.2067L624.271 56.7871C615.741 50.415 604.472 49.0418 594.661 53.179L572.615 62.4754C570.215 63.4875 567.957 64.8079 565.898 66.4032L513.5 107L479.306 135.875C472.463 141.653 463.406 144.063 454.582 142.525C430.825 138.382 397.687 133 388.5 133C377.3 133 343.5 106.333 328 93L299.695 70.5113C294.389 66.2951 287.811 64 281.033 64H213.684C208.961 64 204.306 62.8851 200.095 60.746L144.5 32.5L87.103 4.00798C79.4067 0.187479 70.4416 -0.14954 62.4801 3.08235L37.4766 13.2323C29.2516 16.5711 22.9275 23.3812 20.2056 31.8304L1.94513 88.5141C0.987582 91.4865 0.5 94.5901 0.5 97.713V168.291C0.5 172.387 1.33866 176.439 2.96429 180.199L22.4286 225.21C23.7992 228.379 25.7068 231.289 28.0673 233.809L46.8384 253.853C51.4755 258.804 57.6538 262.038 64.3653 263.026L135.5 273.5L174.966 283.265C180.85 284.721 186.156 287.925 190.183 292.456L221.705 327.918C223.23 329.634 224.553 331.519 225.648 333.536L236.229 353.027C240.515 360.923 248.115 366.482 256.938 368.176L299.613 376.37C303.499 377.116 307.495 377.086 311.369 376.281L418.927 353.949C421.957 353.32 424.872 352.226 427.568 350.705L477.25 322.68C480.391 320.908 483.826 319.717 487.389 319.164L560.67 307.793C566.118 306.947 571.693 307.62 576.784 309.736L649.486 339.955C651.159 340.65 652.891 341.193 654.661 341.575L697.518 350.842C703.99 352.241 710.744 351.46 716.726 348.62L768.696 323.943C774.108 321.373 778.626 317.242 781.67 312.082L809.951 264.127C810.981 262.38 812.185 260.742 813.546 259.239L841.746 228.07C846.737 222.554 849.5 215.381 849.5 207.943V178.599C849.5 169.668 845.521 161.202 838.646 155.502L823.418 142.879C815.941 136.681 805.926 134.486 796.542 136.989L773.306 143.185C768.83 144.379 764.137 144.519 759.597 143.596L716.349 134.8C710.577 133.626 705.279 130.779 701.115 126.615Z" fill="#ECF8FF"/>
</svg>
