<svg width="792" height="572" viewBox="0 0 792 572" fill="none" xmlns="http://www.w3.org/2000/svg">
<path d="M350.225 96.3244L413.808 61.5707C420.366 57.9865 425.349 52.084 427.783 45.0187L436.157 20.7158C440.962 6.76786 455.196 -1.61613 469.724 0.942939L519.832 9.76876C527.921 11.1935 535.073 15.8726 539.617 22.7142L574.577 75.3418C577.475 79.7045 581.465 83.2325 586.15 85.5748L662 123.5L728.794 154.363C732.557 156.102 735.919 158.602 738.668 161.706L784.014 212.903C791.648 221.522 793.676 233.75 789.232 244.372L777.616 272.138C776.544 274.7 775.121 277.101 773.388 279.272L736.139 325.946C735.048 327.313 734.084 328.77 733.237 330.3C720.526 353.254 694.488 395 682.5 395C672.544 395 646.449 406.175 627.664 415.065C619.882 418.749 610.921 419.168 602.927 415.971L555.864 397.146C552.321 395.728 548.539 395 544.723 395H462.5C451.421 395 441.243 401.106 436.029 410.882L408.5 462.5C394.667 489.167 364.9 545.6 356.5 558C346 573.5 289.5 571 258.5 571C227.5 571 206.5 566 206.5 558C206.5 553.23 194.095 539.833 183.153 529.108C176.823 522.904 173.218 514.387 173.482 505.528C174.16 482.738 174.624 450.693 173 439C171.441 427.775 158.235 412.579 147.593 402.32C142.517 397.426 135.635 395 128.585 395H98.1846C91.2741 395 84.5756 392.614 79.2208 388.246L35.8652 352.877C32.3348 349.997 29.5068 346.35 27.5957 342.215L2.91802 288.808C-0.830406 280.695 -0.767165 271.334 3.09054 263.273L26.9848 213.345C29.2866 208.535 32.8288 204.426 37.2466 201.44L100.042 158.999C102.007 157.671 103.808 156.115 105.406 154.362L149.891 105.6C153.244 101.924 157.459 99.1405 162.156 97.4989L196.649 85.4429C203.029 83.2132 209.975 83.2028 216.361 85.4134L253.732 98.3496C256.889 99.4422 260.205 100 263.545 100H335.836C340.865 100 345.812 98.7361 350.225 96.3244Z" fill="#ECF8FF"/>
</svg>
