<svg width="704" height="426" viewBox="0 0 704 426" fill="none" xmlns="http://www.w3.org/2000/svg">
<path d="M181.994 11.6455L143.672 59.0747C141.572 61.6733 139.921 64.6044 138.787 67.747L130.151 91.6822C125.86 103.574 114.574 111.5 101.932 111.5H74.9106C69.0957 111.5 63.4062 113.19 58.5341 116.364L13.6236 145.624C5.12519 151.161 0 160.617 0 170.76V232.776C0 237.204 0.980185 241.577 2.87021 245.581L25.3288 293.163C28.0395 298.906 32.5028 303.64 38.076 306.685L79.9997 329.588C82.323 330.857 84.4681 332.428 86.3791 334.26L132 378L181.276 418.506C187.496 423.62 195.51 426.018 203.517 425.161L281.793 416.79C283.594 416.597 285.374 416.242 287.111 415.728L353.342 396.138C354.779 395.713 356.245 395.397 357.729 395.191L432.784 384.779C438.787 383.946 444.901 384.951 450.322 387.661L483.941 404.471C485.974 405.487 488.115 406.269 490.324 406.802L563.715 424.502C569.131 425.808 574.804 425.58 580.098 423.844L634.5 406L683.24 390.221C695.616 386.214 704 374.688 704 361.679V337.625C704 333.583 703.183 329.583 701.599 325.865L680.829 277.119C679.946 275.046 678.832 273.08 677.509 271.256L634.5 212L605.275 175.151C601.826 170.802 597.248 167.484 592.007 165.659C578.116 160.82 558.595 154.5 553 154.5H479.228C471.086 154.5 463.307 151.191 457.653 145.333L425 111.5L381.5 63L342.397 25.245C339.495 22.4438 336.059 20.2563 332.293 18.8132L289.683 2.48616C286.257 1.1732 282.619 0.5 278.949 0.5H205.329C196.267 0.5 187.69 4.59658 181.994 11.6455Z" fill="#ECF8FF"/>
</svg>
