<svg width="760" height="452" viewBox="0 0 760 452" fill="none" xmlns="http://www.w3.org/2000/svg">
<path d="M99.5818 220H51.5308C39.9137 220 29.3409 226.707 24.3907 237.217L2.8599 282.928C0.976577 286.927 0 291.292 0 295.712V323.67C0 326.213 0.32329 328.746 0.96209 331.207L14.709 384.173C16.2026 389.928 19.3724 395.109 23.816 399.059L39.9751 413.422C45.4666 418.304 52.5586 421 59.906 421H118.11C120.032 421 121.95 420.815 123.836 420.448L175 410.5L225.418 404.141C228.782 403.717 232.184 403.865 235.499 404.576C263.84 410.654 313.72 421 320.5 421C327.106 421 366.764 438.396 390.512 449.248C394.469 451.056 398.753 452 403.104 452H448.94C453.262 452 457.533 451.066 461.461 449.262L523 421L609.168 394.34C612.04 393.452 615.029 393 618.035 393H668.647C675.355 393 681.869 390.752 687.149 386.615L723.986 357.754C726.316 355.928 728.363 353.767 730.06 351.342L753.932 317.24C759.328 309.531 760.795 299.738 757.894 290.787L747.378 258.336C745.818 253.524 743.066 249.184 739.379 245.72L717.896 225.539C714.034 221.911 709.281 219.371 704.119 218.176L651.5 206C634.667 202.5 598.9 194.8 590.5 192C580 188.5 559.5 182 549 182C541.653 182 531.219 162.363 525.262 148.853C523.714 145.341 523 141.537 523 137.698V76C523 63.8438 516.215 50.0542 511.481 42.4866C510.217 40.4655 508.599 38.7135 506.789 37.1614C490.811 23.4555 461.918 0 455.5 0H393.854C386.836 0 380.047 2.46048 374.656 6.95336L350 27.5L319.738 51.8667C314.407 56.1594 307.768 58.5 300.923 58.5H259.949C251.104 58.5 242.71 62.4029 237.01 69.1658L221.076 88.0711C218.067 91.641 215.933 95.8641 214.843 100.404L205.67 138.625C204.895 141.853 203.59 144.929 201.808 147.73L182.608 177.901C180.881 180.616 178.727 183.035 176.231 185.066L155.103 202.256C152.064 204.728 148.57 206.581 144.819 207.711L108.231 218.726C105.425 219.571 102.511 220 99.5818 220Z" fill="#ECF8FF"/>
</svg>
