<svg width="739" height="370" viewBox="0 0 739 370" fill="none" xmlns="http://www.w3.org/2000/svg">
<path d="M239.5 57.5L305.931 6.6738C311.164 2.66964 317.571 0.5 324.16 0.5H328.959C341.832 0.5 353.271 8.71279 357.385 20.9105L361.108 31.9454C363.303 38.451 367.662 44.0069 373.459 47.6858L409.141 70.3299C413.948 73.3802 419.523 75 425.216 75H463.579C472.118 75 480.253 71.3606 485.945 64.9939L502.201 46.8094C505.035 43.6394 508.51 41.1079 512.396 39.383L591.011 4.48977C596.851 1.89779 603.366 1.2379 609.606 2.60623L686.551 19.4765C691.12 20.4783 695.392 22.5346 699.025 25.4812L727.398 48.4953C734.421 54.1916 738.5 62.7519 738.5 71.7945V108.463C738.5 116.779 735.049 124.721 728.97 130.395L695.859 161.298C694.291 162.762 692.884 164.39 691.663 166.153L681.878 180.287C675.242 189.872 674.76 202.435 680.643 212.5L693.5 234.5L712.136 276.098C717.665 288.44 714.253 302.955 703.805 311.541L672.89 336.947C671.632 337.981 670.292 338.91 668.883 339.726L624.477 365.457C619.907 368.105 614.718 369.5 609.436 369.5H551.5H494.902C490.04 369.5 485.222 368.368 481.078 365.826C470.566 359.38 456.257 348.597 453 338.5C448 323 414.5 316 402.5 297C394.647 284.566 363.731 276.638 341.335 272.887C332.882 271.471 324.355 274.281 317.984 280.015L280.282 313.947C278.764 315.312 277.112 316.519 275.35 317.549L248.612 333.175C242.715 336.621 235.817 337.952 229.061 336.947L183.613 330.186C180.556 329.731 177.447 329.752 174.396 330.247L129.542 337.52C125.555 338.167 121.479 338.002 117.557 337.035L95.4904 331.594C89.9455 330.226 84.9061 327.305 80.9643 323.172L56 297L22.2344 262.79C19.4394 259.958 17.2356 256.599 15.7514 252.907L2.16797 219.123C-0.214981 213.196 -0.643884 206.663 0.943698 200.476L16.9753 137.994C17.6552 135.344 18.6945 132.799 20.0641 130.431L33.3361 107.481C38.698 98.2098 48.5958 92.5 59.3061 92.5H108H170.948C176.222 92.5 181.404 91.1091 185.97 88.4677L239.5 57.5Z" fill="#ECF8FF"/>
</svg>
