<svg width="743" height="486" viewBox="0 0 743 486" fill="none" xmlns="http://www.w3.org/2000/svg">
<path d="M247.156 137H385.867C394.529 137 402.769 140.745 408.466 147.27L418.034 158.23C423.731 164.755 431.971 168.5 440.633 168.5H451.981C462.537 168.5 472.316 162.952 477.732 153.891L493.451 127.592C494.481 125.868 495.682 124.252 497.035 122.769L565.514 47.6774C566.835 46.2293 568.294 44.9141 569.871 43.7506L620.559 6.35828C625.717 2.55305 631.958 0.5 638.368 0.5H692.379C698.012 0.5 703.532 2.08629 708.306 5.07727L728.427 17.6835C737.183 23.169 742.5 32.7741 742.5 43.1062V80.2785C742.5 87.8154 739.663 95.0762 734.554 100.617L710.828 126.343C704.619 133.075 701.826 142.274 703.242 151.322L716.139 233.694C716.379 235.229 716.5 236.78 716.5 238.334V309.353C716.5 317.733 712.995 325.731 706.834 331.411L658.625 375.853C654.617 379.548 649.679 382.081 644.341 383.18L575.304 397.393C570.19 398.446 564.89 398.146 559.927 396.523L517.04 382.494C515.019 381.833 513.074 380.959 511.238 379.887L458.511 349.094C453.919 346.413 448.698 345 443.382 345H390.981C385.122 345 379.392 346.715 374.496 349.935L337.674 374.152C330.562 378.829 325.772 386.307 324.497 394.723L318.784 432.424C317.349 441.898 311.474 450.116 302.975 454.54L250.011 482.111C245.734 484.337 240.982 485.5 236.159 485.5H164H96.325C90.5637 485.5 84.9243 483.841 80.0807 480.721L44.959 458.101C34.957 451.659 29.7067 439.915 31.5759 428.166L38.4417 385.01C38.8126 382.678 39.4575 380.398 40.3629 378.218L59.8982 331.174C62.2433 325.526 62.8066 319.297 61.5128 313.321L53.8123 277.752C53.273 275.261 52.4183 272.848 51.269 270.573L28.5 225.5L2.5388 151.385C-0.627774 142.345 0.712838 132.336 6.14683 124.448L21.3386 102.396C25.9184 95.7475 32.9843 91.2257 40.9395 89.8522L87.3 81.8475C94.2139 80.6537 101.327 81.921 107.404 85.429L144.071 106.598C145.687 107.531 147.386 108.311 149.147 108.928L195 125L239.951 136.122C242.308 136.705 244.728 137 247.156 137Z" fill="#ECF8FF"/>
</svg>
