<svg width="202" height="223" viewBox="0 0 202 223" fill="none" xmlns="http://www.w3.org/2000/svg">
<g clip-path="url(#clip0)">
<path d="M95.5 40.8463L106.5 19.8711L114 26.4949L120.5 44.1582L114 55.1978L100.5 52.9899L95.5 40.8463Z" fill="#ECF8FF"/>
<path d="M84.5 56.854H4.5V218.584H84.5V135.235L60 117.02L43 103.772L31 92.1807L28 78.3812L39 72.8614L63 83.901L68.5 80.5892L84.5 86.6609V56.854Z" fill="#ECF8FF"/>
<path d="M56.5 2.75977V18.7672H17.5L5.5 12.1434L4.5 2.75977H56.5Z" fill="#ECF8FF"/>
<path d="M109.538 16.7076C108.947 16.0586 108.147 15.6943 107.313 15.6943C106.479 15.6943 105.679 16.0586 105.088 16.7076C103.746 18.171 92.0522 31.4116 92.0522 42.3874C92.0522 46.8555 93.66 51.1406 96.5219 54.3C99.3838 57.4594 103.265 59.2344 107.313 59.2344C111.36 59.2344 115.242 57.4594 118.103 54.3C120.965 51.1406 122.573 46.8555 122.573 42.3874C122.573 31.3594 110.879 18.171 109.538 16.7076ZM107.313 52.2656C106.138 52.2656 104.974 52.0101 103.888 51.5137C102.803 51.0173 101.816 50.2896 100.986 49.3724C100.155 48.4551 99.4955 47.3661 99.0459 46.1676C98.5962 44.9692 98.3647 43.6846 98.3647 42.3874C98.3647 36.8298 103.636 28.9203 107.313 24.2861C110.911 28.8855 116.261 36.8647 116.261 42.3874C116.261 43.6846 116.029 44.9692 115.58 46.1676C115.13 47.3661 114.471 48.4551 113.64 49.3724C112.809 50.2896 111.823 51.0173 110.737 51.5137C109.651 52.0101 108.488 52.2656 107.313 52.2656Z" fill="#3D3D3D"/>
<path d="M85.2188 52.2656H69.4375V36.5859C69.4375 35.6618 69.105 34.7756 68.5131 34.1221C67.9212 33.4687 67.1183 33.1016 66.2812 33.1016H59.9688V6.96875H107.312C108.15 6.96875 108.952 6.60165 109.544 5.9482C110.136 5.29475 110.469 4.40849 110.469 3.48438C110.469 2.56026 110.136 1.674 109.544 1.02055C108.952 0.367103 108.15 0 107.312 0L3.15625 0C2.31916 0 1.51636 0.367103 0.924444 1.02055C0.332533 1.674 0 2.56026 0 3.48438C0 8.567 1.82893 13.4415 5.08444 17.0354C8.33996 20.6294 12.7554 22.6484 17.3594 22.6484H28.4062V33.1016H22.0938C21.2567 33.1016 20.4539 33.4687 19.8619 34.1221C19.27 34.7756 18.9375 35.6618 18.9375 36.5859V52.2656H3.15625C2.31916 52.2656 1.51636 52.6327 0.924444 53.2862C0.332533 53.9396 0 54.8259 0 55.75L0 219.516C0 220.44 0.332533 221.326 0.924444 221.979C1.51636 222.633 2.31916 223 3.15625 223H85.2188C86.0558 223 86.8587 222.633 87.4506 221.979C88.0425 221.326 88.375 220.44 88.375 219.516V137.633C88.375 136.709 88.0425 135.822 87.4506 135.169C86.8587 134.516 86.0558 134.148 85.2188 134.148C84.3817 134.148 83.5788 134.516 82.9869 135.169C82.395 135.822 82.0625 136.709 82.0625 137.633V216.031H6.3125V59.2344H82.0625V87.1094C82.0625 88.0335 82.395 88.9198 82.9869 89.5732C83.5788 90.2266 84.3817 90.5938 85.2188 90.5938C86.0558 90.5938 86.8587 90.2266 87.4506 89.5732C88.0425 88.9198 88.375 88.0335 88.375 87.1094V55.75C88.375 54.8259 88.0425 53.9396 87.4506 53.2862C86.8587 52.6327 86.0558 52.2656 85.2188 52.2656ZM6.77016 6.96875H53.6562V15.6797H17.3594C14.9799 15.6804 12.6639 14.8329 10.7559 13.2633C8.84793 11.6938 7.45 9.48606 6.77016 6.96875ZM34.7188 22.6484H53.6562V33.1016H34.7188V22.6484ZM25.25 52.2656V40.0703H63.125V52.2656H25.25Z" fill="#3D3D3D"/>
<path d="M201.653 112.493C201.272 111.671 200.61 111.05 199.814 110.765C199.018 110.481 198.153 110.557 197.408 110.978C179.196 121.274 129.406 147.964 117.412 147.964C111.463 147.964 98.9167 141.117 85.2186 132.041C89.0692 131.204 93.2355 129.898 97.3386 128.556C100.77 127.304 104.291 126.377 107.865 125.786C119.313 125.347 130.77 126.293 142.031 128.608C142.438 128.7 142.858 128.702 143.266 128.613C143.674 128.525 144.062 128.349 144.408 128.095C144.754 127.841 145.051 127.514 145.282 127.132C145.514 126.751 145.674 126.323 145.755 125.873C145.918 124.97 145.751 124.033 145.29 123.265C144.828 122.498 144.111 121.964 143.294 121.779C131.524 119.351 119.546 118.375 107.581 118.87C103.511 119.458 99.5035 120.491 95.6185 121.953C90.3633 123.695 80.3106 126.797 76.1602 125.856L74.2822 124.514C73.5045 123.272 73.0107 121.84 72.8431 120.342C72.6754 118.843 72.8389 117.322 73.3195 115.908C74.44 112.65 78.4011 106.639 92.257 103.19C98.0961 101.732 104.025 100.753 109.995 100.263C113.656 99.8972 117.791 99.4616 123.378 98.6428C125.429 98.3292 127.607 96.9006 130.89 94.8971C142.528 87.2445 155.383 82.1176 168.765 79.7924C188.428 76.0641 196.745 80.0188 196.792 80.0537C197.168 80.2637 197.577 80.3887 197.997 80.4213C198.417 80.4539 198.839 80.3935 199.237 80.2435C199.636 80.0936 200.003 79.8571 200.317 79.5481C200.632 79.2391 200.887 78.8638 201.068 78.4443C201.249 78.0247 201.352 77.5695 201.372 77.1052C201.391 76.641 201.326 76.1772 201.18 75.7411C201.035 75.305 200.812 74.9055 200.524 74.566C200.237 74.2266 199.891 73.954 199.506 73.7644C199.112 73.5553 189.643 68.7469 167.691 72.9281C153.568 75.3685 139.999 80.7739 127.718 88.8517C126.081 90.0157 124.335 90.9796 122.51 91.7263C117.049 92.5277 113.041 92.9633 109.38 93.3292C107.044 93.5731 104.898 93.7995 102.72 94.0957C99.3727 92.4014 96.1069 90.5174 92.9356 88.451C82.2675 81.883 74.3769 77.1791 70.037 77.1791C66.4863 77.1791 64.0086 78.2767 62.683 80.4544L62.5725 80.646C58.927 78.1721 55.0133 75.6111 51.1153 73.4682C41.3941 68.0849 31.3099 70.611 26.9069 73.6076C26.0723 74.1359 25.3556 74.864 24.8094 75.7383C24.2632 76.6126 23.9014 77.611 23.7506 78.6599C23.5308 81.0778 24.1202 83.5009 25.4077 85.4719C25.4456 87.1823 25.8 88.8661 26.4492 90.4197C28.9742 96.9006 49.0164 114.654 70.1475 129.915C70.9834 130.851 71.9966 131.571 73.1144 132.023C90.8841 144.602 108.89 154.933 117.412 154.933C133.036 154.933 193.446 121.047 200.28 117.18C201.024 116.759 201.587 116.029 201.845 115.15C202.102 114.271 202.033 113.316 201.653 112.493ZM70.037 84.1478C73.0828 84.1478 83.5774 90.6288 89.8583 94.479L92.3044 95.9773L90.8367 96.3257L89.8741 96.6045C86.7178 95.0191 76.9808 90.0538 74.0928 88.2768C72.3885 87.2663 70.4 85.9423 68.2695 84.4963V84.3569C68.8482 84.2041 69.4422 84.1338 70.037 84.1478ZM48.2905 79.6878C53.1353 82.3708 58.1538 85.8029 62.4936 88.8343C65.6499 90.9424 68.4589 92.9284 70.9366 94.4093C72.8145 95.5417 77.1228 97.7891 80.9419 99.7578C79.6194 100.389 78.3288 101.099 77.0755 101.883C67.3542 96.047 62.0044 92.1967 58.138 89.357C53.9226 86.0732 49.3596 83.3702 44.5503 81.3081C40.708 79.4243 36.5555 78.434 32.3514 78.3986C37.6095 76.4815 43.3417 76.9451 48.2905 79.6878ZM32.241 87.667C31.9526 86.999 31.7762 86.2789 31.7202 85.5416C32.525 85.1757 35.6339 84.9841 42.3252 87.8238C46.7162 89.7017 50.8778 92.1774 54.7134 95.1933C58.3747 97.8414 63.2353 101.343 71.5994 106.465C69.7642 108.426 68.3372 110.804 67.4174 113.434C66.831 115.139 66.516 116.942 66.4863 118.765C49.1742 105.664 34.0242 92.2141 32.241 87.667Z" fill="#3D3D3D"/>
</g>
<defs>
<clipPath id="clip0">
<rect width="202" height="223" fill="white"/>
</clipPath>
</defs>
</svg>
