<svg width="202" height="222" viewBox="0 0 202 222" fill="none" xmlns="http://www.w3.org/2000/svg">
<g clip-path="url(#clip0)">
<path d="M16.5 156.059H4V103.307L12 90.1187H26L35.5 103.307L44 90.1187H59L68.5 103.307V156.059H53.5V216.505H16.5V156.059Z" fill="#ECF8FF"/>
<path d="M146.5 156.059H134V103.307L142 90.1187H156L165.5 103.307L174 90.1187H189L198.5 103.307V156.059H183.5V216.505H146.5V156.059Z" fill="#ECF8FF"/>
<path d="M34.5 55.5001L20 51.1041L36.5 42.312L50.5 51.1041L34.5 55.5001Z" fill="#ECF8FF"/>
<path d="M165.5 56.0494L151 51.6534L167.5 42.8613L181.5 51.6534L165.5 56.0494Z" fill="#ECF8FF"/>
<path d="M53.4511 110.497C52.614 110.497 51.8112 110.863 51.2193 111.513C50.6274 112.164 50.2949 113.046 50.2949 113.966V215.063H38.6168V150.995C38.6168 150.075 38.2842 149.192 37.6923 148.542C37.1004 147.891 36.2976 147.526 35.4605 147.526C34.6234 147.526 33.8206 147.891 33.2287 148.542C32.6368 149.192 32.3043 150.075 32.3043 150.995V215.063H20.6104V113.966C20.6104 113.046 20.2778 112.164 19.6859 111.513C19.094 110.863 18.2912 110.497 17.4541 110.497C16.617 110.497 15.8142 110.863 15.2223 111.513C14.6304 112.164 14.2979 113.046 14.2979 113.966V218.531C14.2979 219.451 14.6304 220.334 15.2223 220.984C15.8142 221.635 16.617 222 17.4541 222H53.4511C54.2882 222 55.091 221.635 55.6829 220.984C56.2748 220.334 56.6074 219.451 56.6074 218.531V113.966C56.6074 113.046 56.2748 112.164 55.6829 111.513C55.091 110.863 54.2882 110.497 53.4511 110.497Z" fill="#3D3D3D"/>
<path d="M51.4627 84.9845C55.98 80.4574 58.7193 74.1779 59.1021 67.4724C59.4849 60.7668 57.4812 54.1603 53.5142 49.0482C53.4038 48.9095 53.2933 48.7534 53.1828 48.632C50.9616 45.8724 48.2324 43.6628 45.1758 42.1494C42.1192 40.6361 38.805 39.8535 35.4526 39.8535C32.1002 39.8535 28.786 40.6361 25.7294 42.1494C22.6728 43.6628 19.9436 45.8724 17.7224 48.632C17.6195 48.7392 17.5246 48.8552 17.4383 48.9788C13.454 54.0921 11.4354 60.708 11.8094 67.4275C12.1835 74.1469 14.9208 80.443 19.4425 84.9845C14.2162 85.1957 9.26849 87.628 5.64175 91.7692C2.01501 95.9103 -0.00759968 101.437 2.14591e-05 107.184V157.967C2.14591e-05 158.887 0.332554 159.769 0.924466 160.42C1.51638 161.07 2.31918 161.436 3.15627 161.436C3.99336 161.436 4.79617 161.07 5.38808 160.42C5.97999 159.769 6.31252 158.887 6.31252 157.967V107.184C6.31045 105.182 6.6672 103.2 7.3624 101.349C8.05761 99.4986 9.07765 97.8167 10.3643 96.3994C11.6509 94.9822 13.179 93.8573 14.8612 93.0891C16.5434 92.3208 18.3468 91.9242 20.1685 91.922H23.1511L32.8566 107.531C33.1464 107.996 33.535 108.377 33.9887 108.64C34.4424 108.902 34.9476 109.04 35.4605 109.04C35.9734 109.04 36.4785 108.902 36.9322 108.64C37.386 108.377 37.7746 107.996 38.0644 107.531L47.7541 91.922H50.7367C54.4103 91.9266 57.9322 93.5324 60.5298 96.3871C63.1273 99.2419 64.5885 103.113 64.5927 107.15V157.967C64.5927 158.887 64.9252 159.769 65.5171 160.42C66.109 161.07 66.9118 161.436 67.7489 161.436C68.586 161.436 69.3888 161.07 69.9807 160.42C70.5726 159.769 70.9052 158.887 70.9052 157.967V107.184C70.9128 101.437 68.8902 95.9103 65.2635 91.7692C61.6367 87.628 56.689 85.1957 51.4627 84.9845ZM45.5605 50.297C42.3193 51.5633 38.9002 52.1915 35.4605 52.1527C32.0156 52.1913 28.5914 51.5632 25.3447 50.297C28.283 47.9518 31.8212 46.6888 35.4526 46.6888C39.084 46.6888 42.6222 47.9518 45.5605 50.297ZM18.0853 65.9063C18.0796 62.32 19.0049 58.8063 20.7524 55.7776C25.3585 58.1243 30.3838 59.3094 35.4605 59.2463C40.5319 59.3074 45.5517 58.1223 50.1528 55.7776C51.9051 58.8049 52.8357 62.3184 52.8356 65.9063C52.8356 70.9662 51.0067 75.8188 47.7512 79.3966C44.4957 82.9745 40.0803 84.9845 35.4763 84.9845C30.8723 84.9845 26.4569 82.9745 23.2013 79.3966C19.9458 75.8188 18.1169 70.9662 18.1169 65.9063H18.0853ZM35.4447 99.3798L30.805 91.922H40.1002L35.4447 99.3798Z" fill="#3D3D3D"/>
<path d="M184.514 110.324C183.677 110.324 182.874 110.689 182.283 111.34C181.691 111.99 181.358 112.873 181.358 113.792V215.063H169.648V150.891C169.648 149.971 169.316 149.089 168.724 148.438C168.132 147.787 167.329 147.422 166.492 147.422C165.655 147.422 164.852 147.787 164.26 148.438C163.668 149.089 163.336 149.971 163.336 150.891V215.063H151.626V113.792C151.626 112.873 151.294 111.99 150.702 111.34C150.11 110.689 149.307 110.324 148.47 110.324C147.633 110.324 146.83 110.689 146.238 111.34C145.646 111.99 145.314 112.873 145.314 113.792V218.531C145.314 219.451 145.646 220.334 146.238 220.984C146.83 221.635 147.633 222 148.47 222H184.514C185.351 222 186.154 221.635 186.746 220.984C187.338 220.334 187.671 219.451 187.671 218.531V113.792C187.671 112.873 187.338 111.99 186.746 111.34C186.154 110.689 185.351 110.324 184.514 110.324Z" fill="#3D3D3D"/>
<path d="M182.51 84.846C187.032 80.3118 189.781 74.0285 190.178 67.315C190.575 60.6016 188.591 53.9801 184.641 48.8404L184.309 48.4241C182.088 45.6559 179.356 43.4388 176.295 41.9202C173.234 40.4016 169.914 39.6162 166.555 39.6162C163.197 39.6162 159.877 40.4016 156.816 41.9202C153.755 43.4388 151.023 45.6559 148.801 48.4241C148.69 48.5331 148.589 48.6552 148.502 48.7883C144.53 53.9171 142.524 60.5385 142.903 67.2599C143.283 73.9813 146.02 80.279 150.537 84.8287C145.296 85.0133 140.325 87.4311 136.676 91.5708C133.027 95.7105 130.986 101.248 130.984 107.011V157.829C130.984 158.748 131.317 159.631 131.909 160.281C132.501 160.932 133.304 161.297 134.141 161.297C134.978 161.297 135.781 160.932 136.372 160.281C136.964 159.631 137.297 158.748 137.297 157.829V107.011C137.301 102.965 138.766 99.0854 141.369 96.2242C143.973 93.3629 147.502 91.7534 151.184 91.7488H154.183L163.888 107.358C164.178 107.823 164.567 108.204 165.02 108.466C165.474 108.729 165.979 108.867 166.492 108.867C167.005 108.867 167.51 108.729 167.964 108.466C168.418 108.204 168.806 107.823 169.096 107.358L178.802 91.7488H181.8C185.482 91.7534 189.012 93.3629 191.615 96.2242C194.219 99.0854 195.683 102.965 195.688 107.011V157.829C195.688 158.748 196.02 159.631 196.612 160.281C197.204 160.932 198.007 161.297 198.844 161.297C199.681 161.297 200.484 160.932 201.076 160.281C201.667 159.631 202 158.748 202 157.829V107.011C201.995 101.262 199.961 95.7395 196.326 91.6054C192.691 87.4712 187.738 85.0481 182.51 84.846ZM176.64 50.1585C170.069 52.6792 162.915 52.6792 156.345 50.1585C159.3 47.8187 162.85 46.5596 166.492 46.5596C170.134 46.5596 173.684 47.8187 176.64 50.1585ZM149.085 65.7679C149.067 62.1336 149.998 58.5699 151.768 55.5004C156.401 57.7754 161.418 58.9512 166.492 58.9512C171.566 58.9512 176.583 57.7754 181.216 55.5004C182.624 58.0062 183.484 60.8361 183.73 63.7684C183.977 66.7007 183.602 69.6559 182.635 72.4025C181.669 75.1491 180.137 77.6126 178.16 79.6C176.183 81.5873 173.814 83.0447 171.238 83.8579C168.663 84.6712 165.951 84.8182 163.316 84.2874C160.68 83.7567 158.192 82.5626 156.046 80.7987C153.901 79.0348 152.156 76.749 150.948 74.1203C149.741 71.4915 149.103 68.5912 149.085 65.6465V65.7679ZM166.445 99.328L161.71 91.8529H171.021L166.445 99.328Z" fill="#3D3D3D"/>
<path d="M131.111 51.8754C131.404 52.2 131.753 52.4576 132.138 52.6332C132.523 52.8088 132.935 52.8991 133.351 52.8987C134.187 52.8948 134.987 52.5268 135.577 51.8754L145.834 40.602C146.422 39.9521 146.752 39.0729 146.752 38.1565C146.752 37.2401 146.422 36.3609 145.834 35.711L135.577 24.4376C134.977 23.8385 134.191 23.5157 133.381 23.5361C132.571 23.5564 131.799 23.9183 131.225 24.5468C130.651 25.1753 130.319 26.0223 130.298 26.9124C130.277 27.8026 130.568 28.6676 131.111 29.3285L135.987 34.6878H66.0129L70.7473 29.4846C71.2902 28.8237 71.5812 27.9587 71.5598 27.0685C71.5384 26.1784 71.2064 25.3314 70.6325 24.7029C70.0586 24.0744 69.2867 23.7125 68.4767 23.6922C67.6667 23.6718 66.8806 23.9946 66.2812 24.5937L56.0233 35.8671C55.7299 36.1893 55.4971 36.5718 55.3382 36.9929C55.1794 37.414 55.0977 37.8654 55.0977 38.3213C55.0977 38.7771 55.1794 39.2285 55.3382 39.6496C55.4971 40.0707 55.7299 40.4533 56.0233 40.7754L66.2812 52.0315C66.5744 52.3538 66.9225 52.6094 67.3057 52.7839C67.6888 52.9583 68.0995 53.048 68.5142 53.048C68.9289 53.048 69.3396 52.9583 69.7227 52.7839C70.1059 52.6094 70.454 52.3538 70.7473 52.0315C71.0405 51.7092 71.2731 51.3266 71.4318 50.9055C71.5905 50.4844 71.6722 50.0331 71.6722 49.5774C71.6722 49.1216 71.5905 48.6703 71.4318 48.2492C71.2731 47.8281 71.0405 47.4455 70.7473 47.1232L65.713 41.6253H135.987L131.111 46.9845C130.523 47.6344 130.193 48.5135 130.193 49.4299C130.193 50.3463 130.523 51.2255 131.111 51.8754Z" fill="#3D3D3D"/>
<path d="M79.5532 12.8516L80.4843 11.8456V24.2811C80.4843 25.2011 80.8169 26.0834 81.4088 26.7339C82.0007 27.3844 82.8035 27.7499 83.6406 27.7499C84.4777 27.7499 85.2805 27.3844 85.8724 26.7339C86.4643 26.0834 86.7968 25.2011 86.7968 24.2811V3.46861C86.7981 2.78281 86.6144 2.11197 86.2689 1.54088C85.9234 0.969778 85.4317 0.52405 84.8557 0.260017C84.278 -0.00129008 83.6426 -0.0682598 83.0302 0.0675908C82.4177 0.203441 81.8558 0.536 81.4154 1.02314L75.1029 7.96064C74.5859 8.62422 74.3157 9.47779 74.3463 10.3508C74.377 11.2238 74.7063 12.0519 75.2684 12.6697C75.8306 13.2875 76.5841 13.6494 77.3784 13.6831C78.1728 13.7168 78.9495 13.4199 79.5532 12.8516Z" fill="#3D3D3D"/>
<path d="M96.2656 27.7501C97.1027 27.7501 97.9055 27.3846 98.4974 26.7341C99.0893 26.0836 99.4219 25.2013 99.4219 24.2813V17.3438C99.4219 14.1526 101 13.0079 102.578 13.0079C104.156 13.0079 105.734 14.1526 105.734 17.3438V24.2813C105.734 25.2013 106.067 26.0836 106.659 26.7341C107.251 27.3846 108.054 27.7501 108.891 27.7501C109.728 27.7501 110.531 27.3846 111.122 26.7341C111.714 26.0836 112.047 25.2013 112.047 24.2813V17.3438C112.047 14.1526 113.625 13.0079 115.203 13.0079C116.781 13.0079 118.359 14.1526 118.359 17.3438V24.2813C118.359 25.2013 118.692 26.0836 119.284 26.7341C119.876 27.3846 120.679 27.7501 121.516 27.7501C122.353 27.7501 123.156 27.3846 123.747 26.7341C124.339 26.0836 124.672 25.2013 124.672 24.2813V17.3438C124.672 9.93805 119.938 6.0704 115.203 6.0704C112.867 6.06934 110.616 7.02823 108.891 8.75868C107.165 7.02823 104.914 6.06934 102.578 6.0704C100.918 6.06309 99.2853 6.5356 97.8438 7.44055C97.3665 7.13767 96.8254 6.97742 96.2743 6.97572C95.7232 6.97402 95.1812 7.13095 94.7024 7.43089C94.2237 7.73082 93.8247 8.16331 93.5452 8.68533C93.2657 9.20734 93.1154 9.80069 93.1094 10.4063V24.2813C93.1094 25.2013 93.4419 26.0836 94.0338 26.7341C94.6257 27.3846 95.4285 27.7501 96.2656 27.7501Z" fill="#3D3D3D"/>
</g>
<defs>
<clipPath id="clip0">
<rect width="202" height="222" fill="white"/>
</clipPath>
</defs>
</svg>
