<svg width="202" height="222" viewBox="0 0 202 222" fill="none" xmlns="http://www.w3.org/2000/svg">
<path d="M47 146.168L58 130.233L73.5 120.891L102.5 114.297L122 119.242L149 132.431L155.5 148.366L153 176.391L140.5 207.163L100 219.802L64 207.163L55.5 193.426L47 167.599V146.168Z" fill="#ECF8FF"/>
<path d="M31.5 71.4359L40.5 41.2131L56.5 17.0349L92.5 2.19824L132 8.7923L161 36.8171L171 74.1834L168 91.218L149 64.2923L124.5 50.0052L129 66.4903V78.0299L95 66.4903L72.5 48.3567L55.5 66.4903L46.5 101.109L33 89.5695L31.5 71.4359Z" fill="#ECF8FF"/>
<path d="M160.227 158.192C165.309 139.305 173.815 107.67 173.815 90.9506C173.815 56.9916 164.346 0 101 0C75.103 0 55.6131 10.1461 43.0512 30.1434C30.7734 49.7072 28.1853 74.0058 28.1853 90.9506C28.1853 107.479 35.8234 134.466 40.8103 152.33C42.6567 158.799 44.0928 163.916 44.5189 166.205C44.5257 166.239 44.5257 166.275 44.5189 166.309C47.47 180.999 53.9876 200.997 57.1439 204.465C65.4448 213.571 86.2761 221.809 100.842 221.809C114.004 221.809 135.198 214.664 144.54 204.465C148.265 200.372 153.22 185.838 156.25 173.056C156.314 172.865 156.362 172.667 156.392 172.466C156.392 172.258 156.487 171.998 156.55 171.738C156.613 171.478 156.724 170.975 156.803 170.576C157.607 167.939 158.791 163.517 160.227 158.192ZM157.292 144.525C155.435 138.022 152.036 132.179 147.444 127.598C153.107 124.437 158.598 120.916 163.888 117.053C161.963 126.21 159.548 135.906 157.292 144.525ZM61.3101 123.713C50.1055 118.51 37.7487 111.173 36.5336 108.346C36.498 108.245 36.4558 108.146 36.4073 108.052C35.661 104.102 35.0974 100.114 34.7187 96.1017C37.6614 99.5137 41.0112 102.472 44.6767 104.895C45.1192 105.185 45.6197 105.352 46.1344 105.381C46.6492 105.41 47.1625 105.3 47.6295 105.06C48.0966 104.821 48.5031 104.459 48.8137 104.007C49.1242 103.555 49.3293 103.026 49.4111 102.467C49.4111 102.276 52.3464 83.6142 57.428 72.4622C60.8367 64.883 68.7747 56.107 72.5937 52.0312C77.0283 57.0436 87.365 67.9875 96.3761 72.2367C108.212 77.8041 129.406 81.4289 130.306 81.585C130.759 81.6632 131.223 81.6318 131.664 81.4929C132.106 81.3539 132.514 81.1109 132.861 80.7806C133.208 80.4504 133.486 80.0409 133.674 79.5807C133.862 79.1205 133.957 78.6208 133.951 78.1162C133.791 71.4371 132.59 64.8376 130.4 58.6045C130.101 57.7894 129.801 57.0089 129.501 56.2458C135.717 59.4467 141.587 63.4026 147.002 68.0395C155.95 76.2084 166.319 94.2633 166.492 101.895C166.492 101.895 166.492 101.981 166.492 102.016C166.319 103.265 166.113 104.565 165.908 105.884C165.857 105.964 165.814 106.052 165.782 106.144C164.551 109.005 151.91 117.313 140.532 123.609C137.186 122.482 133.573 120.955 129.738 119.308C120.742 115.527 110.548 111.173 101 111.173C90.4897 111.173 78.417 116.377 68.7116 120.591C66.0445 121.753 63.5195 122.828 61.3101 123.678V123.713ZM101 6.9375C153.204 6.9375 166.224 48.1636 167.392 85.1405C163.122 76.7473 157.619 69.1876 151.105 62.767C140.895 53.4187 124.435 46.117 123.725 45.8048C123.11 45.5545 122.439 45.5211 121.805 45.7094C121.172 45.8977 120.608 46.2982 120.191 46.8553C119.774 47.4124 119.526 48.0984 119.481 48.8177C119.435 49.5371 119.595 50.2542 119.938 50.8692C121.752 54.2021 123.334 57.6807 124.672 61.2755C126.116 65.3818 127.061 69.6797 127.481 74.0578C120.821 72.7397 107.186 69.7739 99.0747 65.9062C88.738 61.05 75.4028 45.0937 75.2766 44.8856C74.7209 44.2168 73.9492 43.8134 73.1265 43.7615C72.3038 43.7097 71.4952 44.0135 70.8736 44.6081C70.3055 45.1631 57.0808 57.9628 51.9361 69.375C48.1328 77.7 45.6236 89.3723 44.2664 96.067C40.8576 93.1706 36.6125 88.6266 34.8766 83.5101C36.0759 55.7255 46.3022 6.9375 101 6.9375ZM38.6641 118.926C43.7055 122.295 48.946 125.291 54.3506 127.893C50.0831 132.138 46.8728 137.511 45.0239 143.502C42.9566 136.148 40.6051 127.459 38.6641 118.926ZM140.232 199.679C132.894 207.726 114.209 215.062 101 215.062C88.2645 215.062 68.8378 207.449 61.7836 199.696C59.7636 197.25 53.5616 178.675 50.7367 165.008C50.7281 164.945 50.7281 164.881 50.7367 164.818C50.7367 164.384 50.5473 163.881 50.4211 163.326C49.8224 160.479 49.4736 157.575 49.3795 154.654C49.3795 145.063 55.8341 132.922 62.1466 130.598C64.7505 129.662 67.7647 128.344 70.9683 126.956C80.2319 123.141 91.6891 118.111 101 118.111C109.364 118.111 118.549 122.048 127.449 125.846C131.852 127.737 136.019 129.506 139.932 130.737C146.245 132.732 152.999 146.034 152.794 156.18C152.598 160.025 152.07 163.841 151.216 167.575C150.853 169.084 150.569 170.333 150.395 171.235C147.586 183.133 143.057 196.574 140.232 199.679Z" fill="#3D3D3D"/>
<path d="M116.166 108.641C116.608 108.878 117.094 109.002 117.586 109.005C118.173 109.005 118.749 108.825 119.248 108.484C119.747 108.144 120.15 107.658 120.411 107.08C121.304 105.405 122.588 104.022 124.131 103.077C125.674 102.132 127.419 101.657 129.185 101.704C131.253 101.812 133.277 102.394 135.128 103.412C136.978 104.431 138.615 105.863 139.932 107.618C140.181 107.982 140.493 108.289 140.849 108.521C141.206 108.753 141.601 108.906 142.011 108.97C142.421 109.035 142.839 109.01 143.241 108.897C143.642 108.784 144.019 108.585 144.351 108.312C144.683 108.038 144.962 107.696 145.173 107.304C145.384 106.912 145.523 106.478 145.582 106.027C145.64 105.576 145.618 105.117 145.515 104.676C145.412 104.234 145.231 103.82 144.982 103.455C143.081 100.838 140.685 98.7074 137.96 97.2099C135.235 95.7125 132.246 94.8845 129.201 94.7834C126.257 94.756 123.36 95.6038 120.818 97.2372C118.276 98.8706 116.184 101.229 114.761 104.062C114.408 104.876 114.357 105.81 114.619 106.665C114.881 107.519 115.436 108.228 116.166 108.641Z" fill="#3D3D3D"/>
<path d="M81.6047 107.115C81.8692 107.684 82.2714 108.161 82.7671 108.495C83.2627 108.828 83.8326 109.005 84.4138 109.005C84.9061 109.003 85.3915 108.878 85.8341 108.641C86.564 108.228 87.1189 107.52 87.3811 106.665C87.6433 105.81 87.5922 104.876 87.2386 104.062C85.8093 101.244 83.7153 98.902 81.1771 97.2813C78.6388 95.6607 75.75 94.8218 72.8146 94.8529C69.7692 94.954 66.7804 95.782 64.0553 97.2795C61.3302 98.7769 58.9342 100.908 57.0333 103.525C56.7847 103.889 56.6037 104.304 56.5008 104.745C56.398 105.186 56.3752 105.646 56.4338 106.097C56.4924 106.547 56.6313 106.981 56.8425 107.373C57.0537 107.765 57.333 108.108 57.6646 108.381C57.9962 108.654 58.3735 108.853 58.775 108.966C59.1765 109.079 59.5944 109.104 60.0047 109.04C60.415 108.975 60.8098 108.823 61.1664 108.591C61.5231 108.359 61.8347 108.052 62.0833 107.687C63.4001 105.932 65.0365 104.499 66.8874 103.48C68.7383 102.462 70.7627 101.88 72.8304 101.773C74.5916 101.734 76.3309 102.208 77.8718 103.146C79.4128 104.084 80.7006 105.453 81.6047 107.115Z" fill="#3D3D3D"/>
<path d="M72.8147 107.531C72.1905 107.531 71.5802 107.735 71.0612 108.116C70.5421 108.497 70.1376 109.039 69.8987 109.673C69.6598 110.306 69.5973 111.004 69.7191 111.677C69.8409 112.35 70.1415 112.968 70.5829 113.453C71.0243 113.938 71.5867 114.268 72.1989 114.402C72.8112 114.536 73.4458 114.467 74.0225 114.205C74.5993 113.942 75.0922 113.498 75.439 112.927C75.7858 112.357 75.9709 111.686 75.9709 111C75.9709 110.08 75.6384 109.198 75.0465 108.547C74.4546 107.897 73.6518 107.531 72.8147 107.531Z" fill="#3D3D3D"/>
<path d="M129.185 107.531C128.561 107.531 127.951 107.735 127.432 108.116C126.913 108.497 126.508 109.039 126.269 109.673C126.03 110.306 125.968 111.004 126.09 111.677C126.211 112.35 126.512 112.968 126.953 113.453C127.395 113.938 127.957 114.268 128.57 114.402C129.182 114.536 129.816 114.467 130.393 114.205C130.97 113.942 131.463 113.498 131.81 112.927C132.156 112.357 132.342 111.686 132.342 111C132.342 110.08 132.009 109.198 131.417 108.547C130.825 107.897 130.022 107.531 129.185 107.531Z" fill="#3D3D3D"/>
<path d="M111.51 146.537C108.038 145.816 104.528 145.341 101 145.115C97.4725 145.341 93.9618 145.816 90.4898 146.537C90.0753 146.577 89.672 146.706 89.303 146.918C88.9339 147.129 88.6063 147.418 88.3389 147.768C87.7988 148.475 87.5365 149.39 87.6097 150.31C87.683 151.23 88.0857 152.08 88.7294 152.674C89.3732 153.267 90.2051 153.555 91.0421 153.475C91.2312 153.492 91.4212 153.492 91.6103 153.475C94.7384 152.819 97.9009 152.379 101.079 152.157C104.257 152.379 107.42 152.819 110.548 153.475C111.372 153.638 112.222 153.435 112.91 152.91C113.598 152.384 114.068 151.58 114.217 150.674C114.365 149.768 114.18 148.834 113.702 148.078C113.224 147.321 112.493 146.805 111.668 146.641L111.51 146.537Z" fill="#3D3D3D"/>
</svg>
