<svg width="202" height="223" viewBox="0 0 202 223" fill="none" xmlns="http://www.w3.org/2000/svg">
<g clip-path="url(#clip0)">
<path d="M47.5 38.6386H66V18.2153H29V217.48H173V18.2153H136.5V38.6386H155V197.057H47.5V38.6386Z" fill="#ECF8FF"/>
<path d="M104 100.46V80.0371H139.5V100.46H104Z" fill="#ECF8FF"/>
<path d="M104 149.587V129.164H139.5V149.587H104Z" fill="#ECF8FF"/>
<path d="M173.799 16.8817C171.923 14.9788 169.466 13.9274 166.918 13.9374H116.418C115.836 10.7745 114.483 7.84701 112.505 5.47039C111.019 3.72202 109.222 2.33306 107.225 1.39141C105.228 0.449765 103.076 -0.0240623 100.905 -7.94965e-05C97.2378 -0.0670648 93.6659 1.29263 90.8152 3.84083C87.9645 6.38903 86.0169 9.96325 85.3134 13.9374H34.7188C32.2075 13.9374 29.7991 15.0387 28.0233 16.9991C26.2476 18.9594 25.25 21.6182 25.25 24.3905V212.547C25.25 215.319 26.2476 217.978 28.0233 219.938C29.7991 221.899 32.2075 223 34.7188 223H167.281C168.528 223.014 169.765 222.753 170.92 222.233C172.074 221.712 173.123 220.943 174.005 219.969C174.887 218.996 175.584 217.838 176.055 216.564C176.526 215.289 176.763 213.923 176.75 212.547V24.3905C176.755 22.9817 176.495 21.5871 175.987 20.2947C175.479 19.0023 174.734 17.8402 173.799 16.8817ZM88.1541 20.9062C88.9912 20.9062 89.794 20.5391 90.3859 19.8856C90.9778 19.2322 91.3103 18.3459 91.3103 17.4218C91.2906 16.0312 91.5263 14.6507 92.0031 13.3634C92.4799 12.0762 93.1881 10.9089 94.0847 9.93204C94.9814 8.95518 96.048 8.18898 97.2203 7.67967C98.3925 7.17036 99.6461 6.9285 100.905 6.96867C102.219 6.92754 103.527 7.19516 104.74 7.75382C105.953 8.31247 107.045 9.14939 107.944 10.2091C109.564 12.1861 110.464 14.7557 110.469 17.4218C110.469 18.3459 110.801 19.2322 111.393 19.8856C111.985 20.5391 112.788 20.9062 113.625 20.9062H132.563V41.8124H69.4375V20.9062H88.1541ZM170.438 212.547C170.438 213.471 170.105 214.357 169.513 215.011C168.921 215.664 168.118 216.031 167.281 216.031H34.7188C33.8817 216.031 33.0789 215.664 32.4869 215.011C31.895 214.357 31.5625 213.471 31.5625 212.547V24.3905C31.5625 23.4664 31.895 22.5802 32.4869 21.9267C33.0789 21.2733 33.8817 20.9062 34.7188 20.9062H63.125V45.2968C63.125 46.2209 63.4575 47.1072 64.0494 47.7606C64.6414 48.4141 65.4442 48.7812 66.2813 48.7812H135.719C136.556 48.7812 137.359 48.4141 137.951 47.7606C138.542 47.1072 138.875 46.2209 138.875 45.2968V20.9062H166.918C167.867 20.8892 168.785 21.2689 169.491 21.9689C169.794 22.276 170.036 22.6505 170.199 23.0679C170.362 23.4853 170.443 23.936 170.438 24.3905V212.547Z" fill="#3D3D3D"/>
<path d="M154.656 34.8438H148.344C147.507 34.8438 146.704 35.2109 146.112 35.8643C145.52 36.5177 145.188 37.404 145.188 38.3281C145.188 39.2522 145.52 40.1385 146.112 40.7919C146.704 41.4454 147.507 41.8125 148.344 41.8125H151.5V195.125H50.5V41.8125H53.6562C54.4933 41.8125 55.2961 41.4454 55.8881 40.7919C56.48 40.1385 56.8125 39.2522 56.8125 38.3281C56.8125 37.404 56.48 36.5177 55.8881 35.8643C55.2961 35.2109 54.4933 34.8438 53.6562 34.8438H47.3438C46.5067 34.8438 45.7039 35.2109 45.1119 35.8643C44.52 36.5177 44.1875 37.404 44.1875 38.3281V198.609C44.1875 199.533 44.52 200.42 45.1119 201.073C45.7039 201.727 46.5067 202.094 47.3438 202.094H154.656C155.493 202.094 156.296 201.727 156.888 201.073C157.48 200.42 157.812 199.533 157.812 198.609V38.3281C157.812 37.404 157.48 36.5177 156.888 35.8643C156.296 35.2109 155.493 34.8438 154.656 34.8438Z" fill="#3D3D3D"/>
<path d="M104.156 83.625H138.875C139.712 83.625 140.515 83.2579 141.107 82.6045C141.699 81.951 142.031 81.0647 142.031 80.1406C142.031 79.2165 141.699 78.3302 141.107 77.6768C140.515 77.0234 139.712 76.6562 138.875 76.6562H104.156C103.319 76.6562 102.516 77.0234 101.924 77.6768C101.333 78.3302 101 79.2165 101 80.1406C101 81.0647 101.333 81.951 101.924 82.6045C102.516 83.2579 103.319 83.625 104.156 83.625Z" fill="#3D3D3D"/>
<path d="M104.156 104.531H129.406C130.243 104.531 131.046 104.164 131.638 103.511C132.23 102.857 132.562 101.971 132.562 101.047C132.562 100.123 132.23 99.2365 131.638 98.583C131.046 97.9296 130.243 97.5625 129.406 97.5625H104.156C103.319 97.5625 102.516 97.9296 101.924 98.583C101.333 99.2365 101 100.123 101 101.047C101 101.971 101.333 102.857 101.924 103.511C102.516 104.164 103.319 104.531 104.156 104.531Z" fill="#3D3D3D"/>
<path d="M72.5937 104.183C73.1854 104.831 73.9853 105.194 74.8188 105.193H74.9608C75.4126 105.186 75.8578 105.072 76.2661 104.859C76.6745 104.645 77.0367 104.338 77.328 103.956L93.9457 81.883C94.2341 81.5364 94.4558 81.1289 94.5977 80.6852C94.7395 80.2414 94.7984 79.7705 94.7709 79.3009C94.7434 78.8313 94.63 78.3727 94.4375 77.9528C94.245 77.5329 93.9775 77.1604 93.6511 76.8577C93.3247 76.5551 92.9461 76.3285 92.5382 76.1918C92.1303 76.0551 91.7016 76.011 91.2779 76.0622C90.8541 76.1134 90.4441 76.2588 90.0727 76.4897C89.7013 76.7206 89.376 77.0321 89.1166 77.4056L74.6137 96.5696L65.3501 86.3604C64.7487 85.761 63.9616 85.4398 63.1516 85.4634C62.3417 85.487 61.571 85.8535 60.9991 86.4871C60.4272 87.1207 60.0979 87.9728 60.0794 88.867C60.0609 89.7612 60.3546 90.629 60.8997 91.2908L72.5937 104.183Z" fill="#3D3D3D"/>
<path d="M138.875 132.406H104.156C103.319 132.406 102.516 132.039 101.924 131.386C101.333 130.732 101 129.846 101 128.922C101 127.998 101.333 127.111 101.924 126.458C102.516 125.805 103.319 125.438 104.156 125.438H138.875C139.712 125.438 140.515 125.805 141.107 126.458C141.699 127.111 142.031 127.998 142.031 128.922C142.031 129.846 141.699 130.732 141.107 131.386C140.515 132.039 139.712 132.406 138.875 132.406Z" fill="#3D3D3D"/>
<path d="M129.406 153.312H104.156C103.319 153.312 102.516 152.945 101.924 152.292C101.333 151.639 101 150.752 101 149.828C101 148.904 101.333 148.018 101.924 147.364C102.516 146.711 103.319 146.344 104.156 146.344H129.406C130.243 146.344 131.046 146.711 131.638 147.364C132.23 148.018 132.562 148.904 132.562 149.828C132.562 150.752 132.23 151.639 131.638 152.292C131.046 152.945 130.243 153.312 129.406 153.312Z" fill="#3D3D3D"/>
<path d="M74.819 153.975C73.9855 153.975 73.1856 153.612 72.5938 152.964L60.8999 140.055C60.5826 139.738 60.3268 139.354 60.148 138.925C59.9693 138.496 59.8713 138.032 59.86 137.56C59.8487 137.088 59.9244 136.619 60.0824 136.18C60.2405 135.742 60.4776 135.343 60.7794 135.009C61.0812 134.675 61.4414 134.411 61.8381 134.235C62.2348 134.059 62.6597 133.974 63.0872 133.985C63.5146 133.996 63.9356 134.102 64.3247 134.298C64.7137 134.494 65.0626 134.775 65.3503 135.124L74.6138 145.333L89.1168 126.169C89.6567 125.462 90.4289 125.021 91.2635 124.943C92.0981 124.864 92.9268 125.155 93.5671 125.751C94.2075 126.347 94.6072 127.2 94.6782 128.121C94.7492 129.042 94.4858 129.957 93.9459 130.664L77.3282 152.738C77.0456 153.108 76.6962 153.409 76.3022 153.622C75.9082 153.835 75.4783 153.955 75.0399 153.975H74.819Z" fill="#3D3D3D"/>
</g>
<defs>
<clipPath id="clip0">
<rect width="202" height="223" fill="white"/>
</clipPath>
</defs>
</svg>
