<svg width="30" height="30" viewBox="0 0 30 30" fill="none" xmlns="http://www.w3.org/2000/svg">
<circle cx="15" cy="15" r="15" fill="#F7F7F7"/>
<path d="M17.9751 9H11.9917C10.3394 9 9 10.3431 9 12V18C9 19.6569 10.3394 21 11.9917 21H17.9751C19.6274 21 20.9668 19.6569 20.9668 18V12C20.9668 10.3431 19.6274 9 17.9751 9Z" fill="#3D3D3D"/>
<path d="M17.9433 14.56C18.0356 15.1841 17.9293 15.8216 17.6395 16.3817C17.3497 16.9418 16.8911 17.396 16.329 17.6797C15.7669 17.9634 15.1299 18.0621 14.5086 17.9619C13.8874 17.8616 13.3134 17.5675 12.8685 17.1213C12.4235 16.6751 12.1302 16.0996 12.0302 15.4766C11.9302 14.8536 12.0287 14.2149 12.3116 13.6512C12.5945 13.0876 13.0475 12.6278 13.606 12.3371C14.1646 12.0465 14.8003 11.9399 15.4228 12.0325C16.0577 12.1269 16.6456 12.4235 17.0994 12.8787C17.5533 13.3338 17.8492 13.9233 17.9433 14.56Z" fill="#F7F7F7"/>
<path d="M18.9674 11.4267C18.9828 11.5307 18.965 11.6369 18.9167 11.7303C18.8684 11.8236 18.792 11.8993 18.6983 11.9466C18.6047 11.9939 18.4985 12.0104 18.395 11.9936C18.2914 11.9769 18.1958 11.9279 18.1216 11.8536C18.0475 11.7792 17.9986 11.6833 17.9819 11.5794C17.9653 11.4756 17.9817 11.3691 18.0288 11.2752C18.076 11.1813 18.1515 11.1046 18.2445 11.0562C18.3376 11.0078 18.4436 10.99 18.5473 11.0054C18.6531 11.0211 18.7511 11.0706 18.8267 11.1464C18.9024 11.2223 18.9517 11.3205 18.9674 11.4267Z" fill="#F7F7F7"/>
</svg>
