<svg width="202" height="223" viewBox="0 0 202 223" fill="none" xmlns="http://www.w3.org/2000/svg">
<g clip-path="url(#clip0)">
<path d="M200.832 190.299C199.748 188.534 198.291 187.087 196.587 186.083C197.047 185.336 197.409 184.521 197.66 183.662C199.617 176.937 194.772 173.47 191.221 170.944L190.448 170.403C186.119 167.906 181.661 165.69 177.097 163.766C178.402 162.374 179.232 160.528 179.449 158.539C179.56 157.022 179.377 155.495 178.912 154.062C180.516 153.278 181.928 152.083 183.031 150.577C183.848 149.408 184.435 148.063 184.755 146.63C185.076 145.196 185.123 143.704 184.893 142.25C184.762 141.154 184.428 140.1 183.912 139.153C183.396 138.206 182.709 137.386 181.895 136.744C180.305 135.533 178.466 134.778 176.545 134.549C176.734 133.677 176.803 132.779 176.75 131.884C176.34 124.915 170.674 123.573 166.524 122.668L165.64 122.458C162.484 121.762 146.134 121.64 140.785 121.709L141.921 120.438C146.766 114.984 148.801 108.016 147.239 101.918C146.942 100.286 146.265 98.7666 145.274 97.5109C144.284 96.2553 143.014 95.3064 141.589 94.7577C136.334 93.3117 131.584 98.6776 128.444 102.214C127.844 102.894 127.023 103.817 126.723 104.061C126.013 104.531 124.183 105.803 120.742 108.399C114.872 112.702 106.176 119.096 100.637 122.807C95.9974 122.807 90.8369 122.65 87.9174 122.598L85.5975 121.953C89.6533 117.249 95.7922 109.479 99.2483 102.005C102.405 95.1584 102.405 87.8935 99.2483 82.5624C98.5132 81.1102 97.4488 79.8938 96.1596 79.0326C94.8704 78.1713 93.4006 77.6947 91.8942 77.6494C86.9074 77.9979 82.9621 83.8516 79.3639 89.8447C78.9063 90.6113 78.3381 91.5869 78.1961 91.7437C77.7385 92.2315 75.4975 93.9911 73.4617 95.5417C67.8594 99.9494 59.4322 106.622 54.9188 112.284C53.4195 114.148 47.9119 120.786 43.0513 126.657C39.106 131.413 35.6972 135.525 34.9239 136.483C34.1506 137.441 32.6356 139.183 30.9786 141.048C29.0849 143.208 27.128 145.438 25.8971 146.954C23.7824 148.4 12.2778 151.17 2.63549 152.947C2.21043 153.001 1.79984 153.15 1.42866 153.385C1.05748 153.621 0.733472 153.936 0.476323 154.314C0.219175 154.692 0.0342574 155.123 -0.0671895 155.582C-0.168637 156.041 -0.184495 156.518 -0.1138 156.984C-0.0431055 157.45 0.112665 157.895 0.344045 158.292C0.575425 158.689 0.877581 159.031 1.23215 159.295C1.58672 159.56 1.98629 159.742 2.40659 159.83C2.82689 159.919 3.25913 159.912 3.67705 159.811C19.4583 156.902 28.5325 154.184 30.5052 151.727C31.6256 150.333 33.6614 147.982 35.5236 145.908C37.3858 143.835 38.8377 142.145 39.6741 141.082C40.5105 140.02 43.9666 135.856 47.7225 131.361C52.5989 125.472 58.1381 118.8 59.6689 116.883C63.7089 111.831 71.8205 105.437 77.1861 101.204C79.2014 99.7775 81.1021 98.163 82.8674 96.3779C83.4934 95.5222 84.0731 94.6263 84.6033 93.695C85.9447 91.4824 89.9847 84.7575 92.1941 84.6007C93.1887 85.1347 93.9658 86.0609 94.3719 87.1966C95.0663 88.7123 96.3919 92.8936 93.646 98.8344C89.7322 107.301 81.5417 116.674 78.496 120.019C72.9883 118.713 69.3428 118.974 67.67 120.873C67.1256 121.483 66.8037 122.293 66.7658 123.148C66.7279 124.004 66.9767 124.844 67.4646 125.51C67.9525 126.176 68.6454 126.62 69.411 126.758C70.1766 126.895 70.9613 126.717 71.6153 126.256C72.0414 126.256 73.9352 125.891 78.6853 127.215L86.718 129.445C86.9496 129.514 87.1883 129.549 87.4281 129.549C89.4481 129.549 107.249 129.985 110.532 129.741C112.268 129.619 120.3 129.375 127.386 129.148L132.72 128.974H132.973C133.141 128.991 133.31 128.991 133.478 128.974L139.648 128.748C142.284 128.556 162.026 128.748 164.362 129.323L165.293 129.532C169.759 130.525 170.374 130.995 170.453 132.354C170.463 132.818 170.369 133.277 170.179 133.69C169.989 134.104 169.709 134.459 169.364 134.723L105.734 142.86C104.897 142.913 104.114 143.331 103.556 144.022C102.998 144.713 102.711 145.62 102.76 146.544C102.808 147.468 103.186 148.333 103.812 148.949C104.438 149.565 105.26 149.881 106.097 149.828H106.46L170.848 141.518H170.99C172.568 141.239 176.608 141.065 178.218 142.372C178.354 142.474 178.468 142.609 178.553 142.765C178.637 142.922 178.69 143.096 178.707 143.278C178.818 143.79 178.828 144.323 178.735 144.841C178.643 145.358 178.45 145.847 178.17 146.274C176.911 147.589 175.288 148.399 173.562 148.574H173.278L107.975 161.257C107.138 161.338 106.365 161.783 105.824 162.493C105.284 163.204 105.022 164.122 105.095 165.046C105.169 165.97 105.571 166.825 106.215 167.421C106.859 168.017 107.691 168.307 108.528 168.226H109.08L172.71 155.874C173.059 156.525 173.214 157.281 173.152 158.034C173.057 158.522 171.574 160.926 166.303 162.895C160.779 164.968 150.522 167.581 150.095 167.721L103.146 178.905C102.732 178.953 102.33 179.091 101.964 179.311C101.597 179.53 101.274 179.827 101.012 180.185C100.749 180.542 100.553 180.953 100.435 181.394C100.316 181.835 100.278 182.298 100.321 182.756C100.365 183.213 100.49 183.657 100.688 184.061C100.887 184.466 101.156 184.823 101.48 185.112C101.804 185.402 102.176 185.618 102.576 185.749C102.976 185.88 103.395 185.922 103.809 185.874C104.035 185.899 104.262 185.899 104.488 185.874L151.058 174.776C151.313 174.798 151.554 174.915 151.741 175.108C151.928 175.301 152.049 175.559 152.084 175.839C152.368 177.128 150.127 178.731 147.776 179.515C146.592 179.916 144.383 180.839 141.589 182.006C139.049 183.069 135.782 184.428 132.626 185.665C132.408 185.72 132.196 185.802 131.994 185.909C129.013 187.191 125.927 188.154 122.778 188.784C119.07 189.027 113.625 191.31 107.328 194.01C104.062 195.386 100.684 196.798 97.5124 197.93C92.6784 199.496 87.7609 200.73 82.7885 201.623H82.4097C72.6885 203.488 61.8941 204.794 56.5758 204.254C46.602 203.244 40.8892 204.254 26.0706 209.481C9.94221 214.916 2.7933 216.031 2.73018 216.031C1.89309 216.094 1.11273 216.521 0.560771 217.218C0.00881304 217.916 -0.26953 218.827 -0.213027 219.751C-0.156523 220.675 0.230199 221.537 0.862064 222.146C1.49393 222.755 2.31918 223.063 3.15627 223H3.58236C3.88221 223 11.2363 221.798 28.0117 215.875C42.7672 210.648 47.4858 210.091 55.9919 210.979C61.8467 211.571 72.7831 210.247 82.6306 208.401C88.7092 211.256 95.0627 213.336 101.568 214.603C104.598 215.317 107.455 215.997 110.232 216.815C121.153 220.038 154.057 222.93 154.42 222.965C154.783 223 155.493 222.965 155.998 222.965C161.789 222.965 165.798 220.021 166.382 215.195C166.439 214.774 166.465 214.349 166.461 213.923C169.964 214.429 174.193 214.934 177.334 215.108C184.309 215.456 189.549 213.366 191.253 209.516C191.871 208.15 192.21 206.651 192.247 205.125C193.997 205.062 195.707 204.536 197.234 203.592C198.382 202.841 199.375 201.832 200.15 200.632C200.924 199.432 201.463 198.067 201.732 196.623C201.981 195.557 202.029 194.446 201.875 193.359C201.72 192.271 201.365 191.23 200.832 190.299ZM127.181 122.18L112.615 122.668C116.687 119.741 120.9 116.64 124.214 114.201C126.992 112.162 129.406 110.403 129.99 110.019C131.079 109.187 132.07 108.21 132.941 107.11C134.519 105.368 138.26 101.152 139.995 101.517C140.775 102.368 141.251 103.499 141.337 104.706C141.574 106.448 141.684 110.803 137.423 115.542C134.409 118.904 132.689 120.769 131.805 121.849C131.751 121.917 131.693 121.981 131.631 122.04L127.181 122.18ZM168.339 169.376C169.159 169.062 169.917 168.731 170.674 168.383C174.509 169.985 185.083 174.846 186.992 176.222L187.797 176.797C191.616 179.533 192.026 180.282 191.648 181.519C191.504 181.952 191.264 182.339 190.95 182.644C190.635 182.948 190.257 183.16 189.848 183.261L158.286 173.992C158.279 173.958 158.279 173.922 158.286 173.888C158.191 173.474 158.076 173.067 157.939 172.668C161.284 171.728 165.372 170.491 168.339 169.376ZM154.956 216.031C146.513 215.3 120.506 212.547 111.936 210.108C109.001 209.237 105.94 208.505 102.973 207.808C100.006 207.111 97.4492 206.484 94.7349 205.718C96.5497 205.23 98.1594 204.742 99.4692 204.272C101.521 203.54 103.604 202.704 105.703 201.85L159.58 212.948C159.818 213.063 160.012 213.269 160.125 213.527C160.237 213.786 160.263 214.081 160.195 214.359C160.022 215.631 157.386 216.188 154.956 216.031ZM185.651 206.484C185.398 206.902 183.157 208.505 177.665 208.226C171.874 207.93 161.616 206.24 161 206.136L117.27 197.146C119.175 196.358 121.156 195.814 123.173 195.526C126.743 194.937 130.242 193.908 133.604 192.46L185.951 204.306C186.056 205.032 185.951 205.776 185.651 206.432V206.484ZM195.64 195.073C195.566 195.602 195.386 196.107 195.113 196.55C194.84 196.993 194.481 197.363 194.062 197.634C192.454 198.346 190.676 198.444 189.012 197.913H188.917H188.744L144.777 187.965C146.908 187.059 148.691 186.327 149.512 186.048C152.349 185.223 154.882 183.438 156.755 180.944L188.791 190.352H188.917C190.495 190.752 194.299 192.216 195.356 194.097C195.47 194.214 195.559 194.358 195.617 194.517C195.674 194.677 195.698 194.849 195.688 195.021L195.64 195.073Z" fill="#3D3D3D"/>
<path d="M167 18.7675V3.31201H185V18.7675H167Z" fill="#ECF8FF"/>
<path d="M137.5 46.9185H113V124.196H137.5V46.9185Z" fill="#ECF8FF"/>
<path d="M121.516 24.3906H198.844C199.681 24.3906 200.484 24.0235 201.076 23.3701C201.667 22.7166 202 21.8304 202 20.9062V15.6797C202 14.7556 201.667 13.8693 201.076 13.2159C200.484 12.5624 199.681 12.1953 198.844 12.1953C198.007 12.1953 197.204 12.5624 196.612 13.2159C196.02 13.8693 195.688 14.7556 195.688 15.6797V17.4219H187.797V3.48438C187.797 2.56026 187.464 1.674 186.872 1.02055C186.281 0.367103 185.478 0 184.641 0L134.693 0C133.856 0 133.053 0.367103 132.461 1.02055C131.869 1.674 131.537 2.56026 131.537 3.48438C131.537 4.40849 131.869 5.29475 132.461 5.9482C133.053 6.60165 133.856 6.96875 134.693 6.96875H162.547V17.4219H121.516C115.55 17.4219 108.891 22.4394 108.891 29.6172V47.0391C108.891 47.9632 109.223 48.8494 109.815 49.5029C110.407 50.1563 111.21 50.5234 112.047 50.5234H137.297C138.134 50.5234 138.937 50.1563 139.529 49.5029C140.121 48.8494 140.453 47.9632 140.453 47.0391V41.8125H195.688V43.5547C195.688 44.4788 196.02 45.3651 196.612 46.0185C197.204 46.672 198.007 47.0391 198.844 47.0391C199.681 47.0391 200.484 46.672 201.076 46.0185C201.667 45.3651 202 44.4788 202 43.5547V38.3281C202 37.404 201.667 36.5177 201.076 35.8643C200.484 35.2109 199.681 34.8438 198.844 34.8438H137.297C136.46 34.8438 135.657 35.2109 135.065 35.8643C134.473 36.5177 134.141 37.404 134.141 38.3281V43.5547H115.203V29.6172C115.203 26.7948 118.675 24.3906 121.516 24.3906ZM168.859 6.96875H181.484V17.4219H168.859V6.96875Z" fill="#3D3D3D"/>
<path d="M112.047 57.4922C111.21 57.4922 110.407 57.8593 109.815 58.5127C109.223 59.1662 108.891 60.0524 108.891 60.9766V102.789C108.891 103.713 109.223 104.599 109.815 105.253C110.407 105.906 111.21 106.273 112.047 106.273C112.884 106.273 113.687 105.906 114.279 105.253C114.871 104.599 115.203 103.713 115.203 102.789V60.9766C115.203 60.0524 114.871 59.1662 114.279 58.5127C113.687 57.8593 112.884 57.4922 112.047 57.4922Z" fill="#3D3D3D"/>
<path d="M124.672 57.4922C123.835 57.4922 123.032 57.8593 122.44 58.5127C121.848 59.1662 121.516 60.0524 121.516 60.9766V92.3359C121.516 93.2601 121.848 94.1463 122.44 94.7998C123.032 95.4532 123.835 95.8203 124.672 95.8203C125.509 95.8203 126.312 95.4532 126.904 94.7998C127.496 94.1463 127.828 93.2601 127.828 92.3359V60.9766C127.828 60.0524 127.496 59.1662 126.904 58.5127C126.312 57.8593 125.509 57.4922 124.672 57.4922Z" fill="#3D3D3D"/>
<path d="M137.297 57.4922C136.46 57.4922 135.657 57.8593 135.065 58.5127C134.473 59.1662 134.141 60.0524 134.141 60.9766V85.3672C134.141 86.2913 134.473 87.1776 135.065 87.831C135.657 88.4845 136.46 88.8516 137.297 88.8516C138.134 88.8516 138.937 88.4845 139.529 87.831C140.121 87.1776 140.453 86.2913 140.453 85.3672V60.9766C140.453 60.0524 140.121 59.1662 139.529 58.5127C138.937 57.8593 138.134 57.4922 137.297 57.4922Z" fill="#3D3D3D"/>
</g>
<defs>
<clipPath id="clip0">
<rect width="202" height="223" fill="white"/>
</clipPath>
</defs>
</svg>
