<svg width="202" height="222" viewBox="0 0 202 222" fill="none" xmlns="http://www.w3.org/2000/svg">
<g clip-path="url(#clip0)">
<path d="M130.5 178.04H72.5V130.233L83.5 114.847H119L130.5 130.233V178.04Z" fill="#ECF8FF"/>
<path d="M58.5 42.8614L71 38.4653L83.5 46.7079V58.2475L77 68.6881H65L56 58.2475L58.5 42.8614Z" fill="#ECF8FF"/>
<path d="M121.5 42.8614L134 38.4653L146.5 46.7079V58.2475L140 68.6881H128L119 58.2475L121.5 42.8614Z" fill="#ECF8FF"/>
<path d="M136.5 90.1187L149 85.7227L161.5 93.9652V105.505L155 115.945H143L134 105.505L136.5 90.1187Z" fill="#ECF8FF"/>
<path d="M42.5 90.1187L55 85.7227L67.5 93.9652V105.505L61 115.945H49L40 105.505L42.5 90.1187Z" fill="#ECF8FF"/>
<path d="M85.2188 133.547C84.3817 133.547 83.5789 133.912 82.9869 134.563C82.395 135.213 82.0625 136.096 82.0625 137.016V176.906C82.0625 177.826 82.395 178.709 82.9869 179.359C83.5789 180.01 84.3817 180.375 85.2188 180.375C86.0558 180.375 86.8586 180.01 87.4506 179.359C88.0425 178.709 88.375 177.826 88.375 176.906V137.016C88.375 136.096 88.0425 135.213 87.4506 134.563C86.8586 133.912 86.0558 133.547 85.2188 133.547Z" fill="#3D3D3D"/>
<path d="M116.781 133.547C115.944 133.547 115.141 133.912 114.549 134.563C113.958 135.213 113.625 136.096 113.625 137.016V176.906C113.625 177.826 113.958 178.709 114.549 179.359C115.141 180.01 115.944 180.375 116.781 180.375C117.618 180.375 118.421 180.01 119.013 179.359C119.605 178.709 119.938 177.826 119.938 176.906V137.016C119.938 136.096 119.605 135.213 119.013 134.563C118.421 133.912 117.618 133.547 116.781 133.547Z" fill="#3D3D3D"/>
<path d="M116.781 111.347C120.022 108.021 122.277 103.7 123.254 98.9467C124.23 94.1932 123.882 89.2267 122.256 84.6932C120.629 80.1598 117.799 76.2691 114.134 73.5271C110.468 70.7852 106.136 69.3188 101.702 69.3188C97.2681 69.3188 92.9366 70.7852 89.2709 73.5271C85.6053 76.2691 82.7752 80.1598 81.1486 84.6932C79.5221 89.2267 79.1744 94.1932 80.1508 98.9467C81.1272 103.7 83.3824 108.021 86.6233 111.347C78.0856 113.133 69.4375 121.406 69.4375 131.813V176.906C69.4375 177.826 69.77 178.709 70.3619 179.359C70.9539 180.01 71.7567 180.375 72.5938 180.375C73.4308 180.375 74.2336 180.01 74.8256 179.359C75.4175 178.709 75.75 177.826 75.75 176.906V131.813C75.75 125.066 83.0567 117.938 89.9531 117.938H113.625C116.92 118.118 120.037 119.638 122.37 122.202C124.703 124.766 126.086 128.191 126.25 131.813V176.906C126.25 177.826 126.583 178.709 127.174 179.359C127.766 180.01 128.569 180.375 129.406 180.375C130.243 180.375 131.046 180.01 131.638 179.359C132.23 178.709 132.562 177.826 132.562 176.906V131.813C132.443 126.937 130.814 122.252 127.945 118.532C125.076 114.811 121.138 112.276 116.781 111.347ZM85.9447 93.6563C85.9447 90.226 86.8702 86.8728 88.6043 84.0206C90.3384 81.1685 92.8031 78.9455 95.6867 77.6328C98.5704 76.32 101.743 75.9766 104.805 76.6458C107.866 77.315 110.678 78.9668 112.885 81.3924C115.092 83.818 116.595 86.9083 117.204 90.2727C117.813 93.637 117.5 97.1243 116.306 100.293C115.111 103.463 113.089 106.171 110.494 108.077C107.898 109.983 104.847 111 101.726 111C97.5405 111 93.5265 109.173 90.5669 105.92C87.6073 102.668 85.9447 98.2561 85.9447 93.6563Z" fill="#3D3D3D"/>
<path d="M159.391 130.078C158.554 130.078 157.751 130.444 157.159 131.094C156.567 131.745 156.234 132.627 156.234 133.547V175.172C156.234 176.092 156.567 176.974 157.159 177.625C157.751 178.275 158.554 178.641 159.391 178.641C160.228 178.641 161.031 178.275 161.622 177.625C162.214 176.974 162.547 176.092 162.547 175.172V133.547C162.547 132.627 162.214 131.745 161.622 131.094C161.031 130.444 160.228 130.078 159.391 130.078Z" fill="#3D3D3D"/>
<path d="M160.858 112.821C163.371 109.474 164.77 105.286 164.825 100.947C164.88 96.6089 163.588 92.3793 161.162 88.9564C158.736 85.5335 155.32 83.1217 151.479 82.119C147.638 81.1163 143.6 81.5825 140.033 83.4407C136.465 85.299 133.58 88.4382 131.855 92.3406C130.129 96.2429 129.665 100.675 130.539 104.906C131.414 109.138 133.574 112.915 136.665 115.615C139.755 118.315 143.591 119.777 147.539 119.759H148.075L148.344 119.672H159.391C161.883 119.738 164.257 120.856 166.019 122.793C167.782 124.73 168.799 127.339 168.859 130.078V164.766C168.859 165.686 169.192 166.568 169.784 167.218C170.376 167.869 171.179 168.234 172.016 168.234C172.853 168.234 173.655 167.869 174.247 167.218C174.839 166.568 175.172 165.686 175.172 164.766V130.078C175.117 125.776 173.63 121.646 170.993 118.466C168.356 115.287 164.751 113.278 160.858 112.821ZM136.492 100.594C136.492 98.1926 137.14 95.8453 138.354 93.8488C139.568 91.8523 141.293 90.2962 143.311 89.3773C145.33 88.4584 147.551 88.218 149.694 88.6865C151.837 89.1549 153.805 90.3112 155.35 92.0091C156.895 93.707 157.947 95.8702 158.373 98.2253C158.8 100.58 158.581 103.021 157.745 105.24C156.909 107.458 155.493 109.354 153.676 110.688C151.86 112.022 149.724 112.734 147.539 112.734C144.609 112.734 141.799 111.455 139.728 109.179C137.656 106.902 136.492 103.814 136.492 100.594Z" fill="#3D3D3D"/>
<path d="M69.4375 72.8438C66.0041 72.8438 62.6479 71.7248 59.7932 69.6285C56.9384 67.5322 54.7134 64.5526 53.3995 61.0665C52.0856 57.5804 51.7419 53.7445 52.4117 50.0437C53.0815 46.3429 54.7348 42.9435 57.1626 40.2754C59.5903 37.6072 62.6835 35.7902 66.0509 35.0541C69.4183 34.318 72.9086 34.6958 76.0807 36.1397C79.2527 37.5837 81.9638 40.029 83.8713 43.1664C85.7788 46.3038 86.7969 49.9923 86.7969 53.7656C86.7969 58.8255 84.968 63.6781 81.7124 67.2559C78.4569 70.8337 74.0415 72.8438 69.4375 72.8438ZM69.4375 41.625C67.2526 41.625 65.1168 42.337 63.3002 43.6711C61.4835 45.0051 60.0676 46.9012 59.2315 49.1196C58.3954 51.338 58.1766 53.7791 58.6029 56.1341C59.0291 58.4892 60.0813 60.6525 61.6262 62.3504C63.1711 64.0482 65.1395 65.2045 67.2824 65.673C69.4253 66.1414 71.6464 65.901 73.665 64.9821C75.6835 64.0632 77.4088 62.5071 78.6227 60.5106C79.8365 58.5141 80.4844 56.1668 80.4844 53.7656C80.4844 50.5457 79.3205 47.4577 77.2488 45.1809C75.1771 42.9041 72.3673 41.625 69.4375 41.625Z" fill="#3D3D3D"/>
<path d="M132.563 72.8438C129.129 72.8438 125.773 71.7248 122.918 69.6285C120.063 67.5322 117.838 64.5526 116.525 61.0665C115.211 57.5804 114.867 53.7445 115.537 50.0437C116.207 46.3429 117.86 42.9435 120.288 40.2754C122.715 37.6072 125.808 35.7902 129.176 35.0541C132.543 34.318 136.034 34.6958 139.206 36.1397C142.378 37.5837 145.089 40.029 146.996 43.1664C148.904 46.3038 149.922 49.9923 149.922 53.7656C149.922 58.8255 148.093 63.6781 144.837 67.2559C141.582 70.8337 137.166 72.8438 132.563 72.8438ZM132.563 41.625C130.378 41.625 128.242 42.337 126.425 43.6711C124.609 45.0051 123.193 46.9012 122.357 49.1196C121.52 51.338 121.302 53.7791 121.728 56.1341C122.154 58.4892 123.206 60.6525 124.751 62.3504C126.296 64.0482 128.264 65.2045 130.407 65.673C132.55 66.1414 134.771 65.901 136.79 64.9821C138.809 64.0632 140.534 62.5071 141.748 60.5106C142.961 58.5141 143.609 56.1668 143.609 53.7656C143.609 50.5457 142.446 47.4577 140.374 45.1809C138.302 42.9041 135.492 41.625 132.563 41.625Z" fill="#3D3D3D"/>
<path d="M101 0C81.0241 0 61.4968 6.51004 44.8875 18.7069C28.2781 30.9037 15.3327 48.2395 7.68821 68.5221C0.0437614 88.8047 -1.95638 111.123 1.94073 132.655C5.83784 154.187 15.4572 173.965 29.5823 189.489C43.7074 205.012 61.7038 215.584 81.2959 219.867C100.888 224.15 121.196 221.952 139.651 213.551C158.106 205.149 173.88 190.922 184.978 172.668C196.077 154.414 202 132.954 202 111C201.971 81.5708 191.32 53.3562 172.386 32.5466C153.451 11.7371 127.778 0.0321355 101 0V0ZM101 6.9375C125.039 6.90854 148.182 16.9643 165.703 35.0517L31.8939 182.109C19.2806 167.298 10.8813 148.759 7.72924 128.77C4.57713 108.782 6.80964 88.2175 14.1522 69.6054C21.4947 50.9933 33.6271 35.1457 49.057 24.0117C64.4869 12.8778 82.5415 6.94304 101 6.9375ZM101 215.062C76.9611 215.091 53.8185 205.036 36.2969 186.948L170.106 39.8906C182.719 54.7016 191.119 73.2414 194.271 93.2296C197.423 113.218 195.19 133.783 187.848 152.395C180.505 171.007 168.373 186.854 152.943 197.988C137.513 209.122 119.459 215.057 101 215.062Z" fill="#3D3D3D"/>
<path d="M41.8047 130.078C40.9676 130.078 40.1648 130.444 39.5729 131.094C38.981 131.745 38.6484 132.627 38.6484 133.547V175.172C38.6484 176.092 38.981 176.974 39.5729 177.625C40.1648 178.275 40.9676 178.641 41.8047 178.641C42.6418 178.641 43.4446 178.275 44.0365 177.625C44.6284 176.974 44.9609 176.092 44.9609 175.172V133.547C44.9609 132.627 44.6284 131.745 44.0365 131.094C43.4446 130.444 42.6418 130.078 41.8047 130.078Z" fill="#3D3D3D"/>
<path d="M53.6564 81.5156C50.3717 81.5337 47.1591 82.5757 44.3918 84.5204C41.6244 86.4651 39.4159 89.2328 38.0227 92.502C36.6296 95.7712 36.109 99.4077 36.5215 102.989C36.9339 106.57 38.2625 109.95 40.3528 112.734C36.4441 113.19 32.8242 115.208 30.182 118.406C27.5397 121.604 26.0596 125.759 26.0234 130.078V164.766C26.0234 165.686 26.356 166.568 26.9479 167.218C27.5398 167.869 28.3426 168.234 29.1797 168.234C30.0168 168.234 30.8196 167.869 31.4115 167.218C32.0034 166.568 32.3359 165.686 32.3359 164.766V130.078C32.3998 127.34 33.418 124.734 35.18 122.798C36.9421 120.861 39.3136 119.742 41.8047 119.672H52.8516H53.1198H53.6564C58.2604 119.672 62.6758 117.662 65.9313 114.084C69.1869 110.506 71.0158 105.654 71.0158 100.594C71.0158 95.5339 69.1869 90.6813 65.9313 87.1035C62.6758 83.5256 58.2604 81.5156 53.6564 81.5156ZM53.6564 112.734C51.4715 112.734 49.3357 112.022 47.5191 110.688C45.7024 109.354 44.2865 107.458 43.4504 105.24C42.6143 103.021 42.3955 100.58 42.8218 98.2252C43.248 95.8702 44.3002 93.7069 45.8451 92.009C47.39 90.3111 49.3584 89.1549 51.5013 88.6864C53.6442 88.218 55.8653 88.4584 57.8839 89.3773C59.9024 90.2962 61.6277 91.8523 62.8415 93.8488C64.0554 95.8453 64.7033 98.1926 64.7033 100.594C64.7033 103.814 63.5394 106.902 61.4677 109.178C59.396 111.455 56.5862 112.734 53.6564 112.734Z" fill="#3D3D3D"/>
</g>
<defs>
<clipPath id="clip0">
<rect width="202" height="222" fill="white"/>
</clipPath>
</defs>
</svg>
